<?xml version="1.0" encoding="iso-8859-1"?>
<svg height="800px" width="800px" version="1.1" id="Layer_1" xmlns="http://www.w3.org/2000/svg" xmlns:xlink="http://www.w3.org/1999/xlink"
	 viewBox="0 0 512 512" xml:space="preserve">
<path style="fill:#AF9CE6;" d="M441.247,46.524C441.247,20.83,420.418,0,394.723,0h-131.59H151.351h-18.799v391.496h130.582v-20.218
	l178.114-24.513L441.247,46.524L441.247,46.524z"/>
<path style="fill:#9B8ACC;" d="M117.278,0C91.583,0,70.753,20.83,70.753,46.524v359.549l80.597-14.577V0H117.278z"/>
<polygon style="fill:#DDE1ED;" points="101.629,458.293 441.247,444.089 441.247,368.055 101.629,353.85 "/>
<path style="fill:#8779B3;" d="M441.247,325.475H151.351c-44.441,0-80.597,36.156-80.597,80.597s36.155,80.596,80.597,80.596
	h289.896v-42.581H151.351c-20.963,0-38.016-17.055-38.016-38.016c0-20.963,17.055-38.017,38.016-38.017h289.896V325.475z"/>
<polygon style="fill:#FFD77A;" points="345.386,123.614 302.186,123.614 302.186,83.069 270.759,83.069 270.759,123.614
	227.559,123.614 227.559,155.042 270.759,155.042 270.759,255.2 302.186,255.2 302.186,155.042 345.386,155.042 "/>
<polygon style="fill:#FF7B78;" points="238.985,480.613 271.438,512 271.438,406.072 206.531,406.072 206.531,512 "/>
</svg>